<?xml version="1.0" encoding="UTF-8"?> <svg xmlns="http://www.w3.org/2000/svg" width="177" height="98" viewBox="0 0 177 98" fill="none"> <path d="M82.6644 84.88C74.5244 93.24 62.9377 97.42 47.9044 97.42C32.871 97.42 21.2844 93.24 13.1444 84.88C5.00438 76.52 0.934375 64.4933 0.934375 48.8C0.934375 33.1067 5.00438 21.08 13.1444 12.72C21.2844 4.36 32.871 0.179996 47.9044 0.179996C62.9377 0.179996 74.5244 4.36 82.6644 12.72C90.8044 21.08 94.8744 33.1067 94.8744 48.8C94.8744 64.4933 90.8044 76.52 82.6644 84.88ZM30.9644 48.8C30.9644 64.1267 36.611 71.79 47.9044 71.79C59.1977 71.79 64.8444 64.1267 64.8444 48.8C64.8444 33.4733 59.1977 25.81 47.9044 25.81C36.611 25.81 30.9644 33.4733 30.9644 48.8ZM157.26 71.9H176.84V95H101.49V71.9H126.79V31.75C121.803 35.93 114.103 38.02 103.69 38.02V12.5C112.123 12.5 119.823 9.2 126.79 2.6H157.26V71.9Z" fill="url(#paint0_linear_31_8)"></path> <defs> <linearGradient id="paint0_linear_31_8" x1="90" y1="-0.5" x2="90" y2="95" gradientUnits="userSpaceOnUse"> <stop stop-color="white"></stop> <stop offset="1" stop-opacity="0"></stop> </linearGradient> </defs> </svg> 