<?xml version="1.0" encoding="UTF-8"?> <svg xmlns="http://www.w3.org/2000/svg" width="184" height="98" viewBox="0 0 184 98" fill="none"> <path d="M81.8929 84.88C73.7529 93.24 62.1662 97.42 47.1329 97.42C32.0996 97.42 20.5129 93.24 12.3729 84.88C4.23289 76.52 0.162891 64.4933 0.162891 48.8C0.162891 33.1067 4.23289 21.08 12.3729 12.72C20.5129 4.36 32.0996 0.179996 47.1329 0.179996C62.1662 0.179996 73.7529 4.36 81.8929 12.72C90.0329 21.08 94.1029 33.1067 94.1029 48.8C94.1029 64.4933 90.0329 76.52 81.8929 84.88ZM30.1929 48.8C30.1929 64.1267 35.8396 71.79 47.1329 71.79C58.4262 71.79 64.0729 64.1267 64.0729 48.8C64.0729 33.4733 58.4262 25.81 47.1329 25.81C35.8396 25.81 30.1929 33.4733 30.1929 48.8ZM183.328 30.21C183.328 36.15 181.935 41.1367 179.148 45.17C176.362 49.2033 172.805 52.2467 168.478 54.3C164.225 56.3533 159.898 58.15 155.498 59.69C151.098 61.1567 146.882 62.88 142.848 64.86C138.888 66.84 136.175 69.1867 134.708 71.9H182.998V95H99.0684V81.25C99.0684 75.8967 100.058 71.13 102.038 66.95C104.092 62.6967 106.695 59.2867 109.848 56.72C113.075 54.08 116.632 51.77 120.518 49.79C124.405 47.81 128.292 46.16 132.178 44.84C136.065 43.52 139.585 42.2733 142.738 41.1C145.965 39.8533 148.568 38.46 150.548 36.92C152.602 35.38 153.628 33.6567 153.628 31.75C153.628 26.8367 150.035 24.38 142.848 24.38C141.235 24.38 139.732 24.49 138.338 24.71C137.018 24.93 135.625 25.37 134.158 26.03C132.765 26.69 131.628 27.7533 130.748 29.22C129.942 30.6133 129.575 32.3367 129.648 34.39H99.9484C99.9484 23.17 103.432 14.6633 110.398 8.87C117.438 3.07666 127.815 0.179996 141.528 0.179996C154.875 0.179996 165.178 2.74666 172.438 7.88C179.698 12.94 183.328 20.3833 183.328 30.21Z" fill="url(#paint0_linear_32_9)"></path> <defs> <linearGradient id="paint0_linear_32_9" x1="92" y1="-0.5" x2="92" y2="95" gradientUnits="userSpaceOnUse"> <stop stop-color="white"></stop> <stop offset="1" stop-opacity="0"></stop> </linearGradient> </defs> </svg> 