<?xml version="1.0" encoding="UTF-8"?> <svg xmlns="http://www.w3.org/2000/svg" width="187" height="98" viewBox="0 0 187 98" fill="none"> <path d="M82.1527 84.88C74.0127 93.24 62.426 97.42 47.3927 97.42C32.3593 97.42 20.7727 93.24 12.6327 84.88C4.49266 76.52 0.422656 64.4933 0.422656 48.8C0.422656 33.1067 4.49266 21.08 12.6327 12.72C20.7727 4.36 32.3593 0.179996 47.3927 0.179996C62.426 0.179996 74.0127 4.36 82.1527 12.72C90.2927 21.08 94.3627 33.1067 94.3627 48.8C94.3627 64.4933 90.2927 76.52 82.1527 84.88ZM30.4527 48.8C30.4527 64.1267 36.0993 71.79 47.3927 71.79C58.686 71.79 64.3327 64.1267 64.3327 48.8C64.3327 33.4733 58.686 25.81 47.3927 25.81C36.0993 25.81 30.4527 33.4733 30.4527 48.8ZM142.008 97.42C127.341 97.42 116.525 94.78 109.558 89.5C102.665 84.22 99.2548 75.75 99.3281 64.09H126.608C126.828 67.61 128.148 70.0667 130.568 71.46C133.061 72.78 136.655 73.44 141.348 73.44C146.335 73.44 150.148 72.78 152.788 71.46C155.501 70.14 156.858 68.2333 156.858 65.74C156.858 64.9333 156.675 64.09 156.308 63.21C155.941 62.33 155.281 61.3767 154.328 60.35C153.375 59.25 151.725 58.37 149.378 57.71C147.105 57.05 144.281 56.72 140.908 56.72H135.848V39.56H140.908C144.208 39.56 146.995 39.3033 149.268 38.79C151.541 38.2033 153.155 37.4333 154.108 36.48C155.061 35.5267 155.685 34.6833 155.978 33.95C156.345 33.1433 156.528 32.3367 156.528 31.53C156.528 26.6167 151.908 24.16 142.668 24.16C133.208 24.16 128.478 27.3867 128.478 33.84H101.418C101.198 11.4 115.021 0.179996 142.888 0.179996C156.308 0.179996 166.501 2.52666 173.468 7.22C180.508 11.84 184.028 18.1833 184.028 26.25C184.028 35.05 179.628 41.5767 170.828 45.83V47.37C175.668 48.8367 179.555 51.4767 182.488 55.29C185.495 59.03 186.998 63.76 186.998 69.48C186.998 78.28 183.001 85.1367 175.008 90.05C167.015 94.9633 156.015 97.42 142.008 97.42Z" fill="url(#paint0_linear_32_10)"></path> <defs> <linearGradient id="paint0_linear_32_10" x1="94" y1="-0.5" x2="94" y2="95" gradientUnits="userSpaceOnUse"> <stop stop-color="white"></stop> <stop offset="1" stop-opacity="0"></stop> </linearGradient> </defs> </svg> 