<?xml version="1.0" encoding="UTF-8"?> <svg xmlns="http://www.w3.org/2000/svg" width="195" height="98" viewBox="0 0 195 98" fill="none"> <path d="M82.4144 84.88C74.2744 93.24 62.6877 97.42 47.6544 97.42C32.621 97.42 21.0344 93.24 12.8944 84.88C4.75438 76.52 0.684375 64.4933 0.684375 48.8C0.684375 33.1067 4.75438 21.08 12.8944 12.72C21.0344 4.36 32.621 0.179996 47.6544 0.179996C62.6877 0.179996 74.2744 4.36 82.4144 12.72C90.5544 21.08 94.6244 33.1067 94.6244 48.8C94.6244 64.4933 90.5544 76.52 82.4144 84.88ZM30.7144 48.8C30.7144 64.1267 36.361 71.79 47.6544 71.79C58.9477 71.79 64.5944 64.1267 64.5944 48.8C64.5944 33.4733 58.9477 25.81 47.6544 25.81C36.361 25.81 30.7144 33.4733 30.7144 48.8ZM180.22 56.28H194.19V79.38H180.22V95H149.75V79.38H100.69V56.28L144.47 2.6H180.22V56.28ZM127.09 56.28H149.75V28.45L127.09 56.28Z" fill="url(#paint0_linear_32_11)"></path> <defs> <linearGradient id="paint0_linear_32_11" x1="98" y1="-0.5" x2="98" y2="95" gradientUnits="userSpaceOnUse"> <stop stop-color="white"></stop> <stop offset="1" stop-opacity="0"></stop> </linearGradient> </defs> </svg> 