<?xml version="1.0" encoding="UTF-8"?> <svg xmlns="http://www.w3.org/2000/svg" width="185" height="98" viewBox="0 0 185 98" fill="none"> <path d="M82.3773 84.88C74.2373 93.24 62.6506 97.42 47.6173 97.42C32.5839 97.42 20.9973 93.24 12.8573 84.88C4.71727 76.52 0.647266 64.4933 0.647266 48.8C0.647266 33.1067 4.71727 21.08 12.8573 12.72C20.9973 4.36 32.5839 0.179996 47.6173 0.179996C62.6506 0.179996 74.2373 4.36 82.3773 12.72C90.5173 21.08 94.5873 33.1067 94.5873 48.8C94.5873 64.4933 90.5173 76.52 82.3773 84.88ZM30.6773 48.8C30.6773 64.1267 36.3239 71.79 47.6173 71.79C58.9106 71.79 64.5573 64.1267 64.5573 48.8C64.5573 33.4733 58.9106 25.81 47.6173 25.81C36.3239 25.81 30.6773 33.4733 30.6773 48.8ZM141.243 97.42C127.163 97.42 116.713 94.7067 109.893 89.28C103.146 83.8533 99.8827 75.6767 100.103 64.75H127.163C128.189 70.69 132.809 73.66 141.023 73.66C146.156 73.66 149.969 72.56 152.463 70.36C155.029 68.16 156.313 65.41 156.313 62.11C156.313 58.7367 155.103 56.06 152.683 54.08C150.336 52.0267 146.779 51 142.013 51C135.926 51 131.196 52.98 127.823 56.94H100.983L111.433 2.6H176.993V25.59H133.983L131.343 38.13C135.743 35.1233 142.269 33.62 150.923 33.62C160.603 33.62 168.669 36.2233 175.123 41.43C181.576 46.6367 184.803 54.08 184.803 63.76C184.803 74.32 181.063 82.57 173.583 88.51C166.176 94.45 155.396 97.42 141.243 97.42Z" fill="url(#paint0_linear_32_12)"></path> <defs> <linearGradient id="paint0_linear_32_12" x1="93" y1="-0.5" x2="93" y2="95" gradientUnits="userSpaceOnUse"> <stop stop-color="white"></stop> <stop offset="1" stop-opacity="0"></stop> </linearGradient> </defs> </svg> 